<svg width="109" height="201" viewBox="0 0 109 201" fill="none" xmlns="http://www.w3.org/2000/svg">
<path d="M0.66 152.24H3.16C3.16 154.44 4.78 155.3 6.78 155.3C8.98 155.3 9.8 154.22 9.8 153.14C9.8 152.04 9.2 151.6 8.62 151.38C7.62 151 6.32 150.74 4.36 150.2C1.92 149.54 1.2 148.06 1.2 146.58C1.2 143.72 3.84 142.38 6.42 142.38C9.4 142.38 11.9 143.96 11.9 146.94H9.4C9.28 145.1 8.04 144.42 6.32 144.42C5.16 144.42 3.7 144.84 3.7 146.28C3.7 147.28 4.38 147.84 5.4 148.12C5.62 148.18 8.78 149 9.52 149.22C11.4 149.78 12.3 151.38 12.3 152.86C12.3 156.06 9.46 157.34 6.62 157.34C3.36 157.34 0.72 155.78 0.66 152.24ZM23.4288 150.12H21.1488C20.9688 148.86 20.0488 148.18 18.7888 148.18C17.6088 148.18 15.9488 148.8 15.9488 151.94C15.9488 153.66 16.7088 155.48 18.6888 155.48C20.0088 155.48 20.9288 154.6 21.1488 153.12H23.4288C23.0088 155.8 21.3488 157.28 18.6888 157.28C15.4488 157.28 13.6688 154.98 13.6688 151.94C13.6688 148.82 15.3688 146.38 18.7688 146.38C21.1688 146.38 23.2088 147.58 23.4288 150.12ZM25.282 157V146.66H27.422V148.66H27.462C27.722 147.56 29.082 146.38 30.482 146.38C31.002 146.38 31.142 146.42 31.342 146.44V148.64C31.022 148.6 30.682 148.54 30.362 148.54C28.802 148.54 27.562 149.8 27.562 152.08V157H25.282ZM36.7017 155.48C38.7417 155.48 39.6417 153.62 39.6417 151.82C39.6417 150.04 38.7417 148.18 36.7017 148.18C34.6617 148.18 33.7617 150.04 33.7617 151.82C33.7617 153.62 34.6617 155.48 36.7017 155.48ZM36.7017 157.28C33.3817 157.28 31.4817 155 31.4817 151.82C31.4817 148.66 33.3817 146.38 36.7017 146.38C40.0217 146.38 41.9217 148.66 41.9217 151.82C41.9217 155 40.0217 157.28 36.7017 157.28ZM43.8772 157V142.72H46.1572V157H43.8772ZM48.7014 157V142.72H50.9814V157H48.7014ZM60.812 151.94C60.812 153.72 61.692 155.48 63.672 155.48C65.712 155.48 66.572 153.62 66.572 151.82C66.572 149.54 65.472 148.18 63.712 148.18C61.572 148.18 60.812 150.08 60.812 151.94ZM68.772 142.72V157H66.612V155.6H66.572C65.972 156.78 64.672 157.28 63.372 157.28C60.112 157.28 58.532 154.86 58.532 151.76C58.532 148.02 60.752 146.38 63.012 146.38C64.312 146.38 65.752 146.86 66.452 148H66.492V142.72H68.772ZM75.9986 155.48C78.0386 155.48 78.9386 153.62 78.9386 151.82C78.9386 150.04 78.0386 148.18 75.9986 148.18C73.9586 148.18 73.0586 150.04 73.0586 151.82C73.0586 153.62 73.9586 155.48 75.9986 155.48ZM75.9986 157.28C72.6786 157.28 70.7786 155 70.7786 151.82C70.7786 148.66 72.6786 146.38 75.9986 146.38C79.3186 146.38 81.2186 148.66 81.2186 151.82C81.2186 155 79.3186 157.28 75.9986 157.28ZM85.3741 157L82.1741 146.66H84.5941L86.6141 154.38H86.6541L88.5941 146.66H90.8941L92.7541 154.38H92.7941L94.8941 146.66H97.2141L93.9741 157H91.6341L89.7141 149.32H89.6741L87.7741 157H85.3741ZM98.6805 157V146.66H100.84V148.18L100.88 148.22C101.56 147.08 102.74 146.38 104.1 146.38C106.34 146.38 107.76 147.58 107.76 149.9V157H105.48V150.5C105.44 148.88 104.8 148.18 103.46 148.18C101.94 148.18 100.96 149.38 100.96 150.9V157H98.6805Z" fill="white"/>
<circle cx="54.5" cy="82.5" r="44" stroke="white"/>
<path d="M55 85L60.6541 74.932L49.1079 75.0694L55 85ZM55.8928 75.9887L54.9999 0.988099L53.0001 1.01191L53.8929 76.0125L55.8928 75.9887Z" fill="white"/>
</svg>
