<svg width="70" height="70" viewBox="0 0 70 70" fill="none" xmlns="http://www.w3.org/2000/svg">
<path d="M47.9991 35.0009C47.9927 38.177 46.8271 41.2416 44.7211 43.6191C42.6152 45.9966 39.7138 47.5236 36.5616 47.9134C36.4913 47.9203 36.4203 47.9126 36.3531 47.8908C36.2859 47.8689 36.2239 47.8334 36.1711 47.7864C36.1182 47.7395 36.0757 47.6821 36.0461 47.6179C36.0165 47.5537 36.0005 47.4841 35.9991 47.4134V38.0009H38.9991C39.1359 38.0012 39.2712 37.9734 39.3968 37.9193C39.5224 37.8652 39.6356 37.7859 39.7293 37.6863C39.823 37.5867 39.8953 37.469 39.9417 37.3403C39.9882 37.2117 40.0077 37.0749 39.9991 36.9384C39.977 36.6798 39.8576 36.4393 39.6651 36.2653C39.4725 36.0913 39.2211 35.9968 38.9616 36.0009H35.9991V33.0009C35.9991 32.4705 36.2099 31.9618 36.5849 31.5867C36.96 31.2116 37.4687 31.0009 37.9991 31.0009H39.9991C40.1359 31.0012 40.2712 30.9734 40.3968 30.9193C40.5224 30.8652 40.6356 30.7859 40.7293 30.6863C40.823 30.5867 40.8953 30.469 40.9417 30.3403C40.9882 30.2117 41.0077 30.0749 40.9991 29.9384C40.977 29.6798 40.8576 29.4393 40.6651 29.2653C40.4725 29.0913 40.2211 28.9968 39.9616 29.0009H37.9991C36.9383 29.0009 35.9209 29.4224 35.1707 30.1725C34.4206 30.9226 33.9991 31.9401 33.9991 33.0009V36.0009H30.9991C30.8624 36.0007 30.727 36.0284 30.6015 36.0826C30.4759 36.1367 30.3627 36.216 30.269 36.3156C30.1753 36.4151 30.103 36.5329 30.0566 36.6615C30.0101 36.7902 29.9906 36.9269 29.9991 37.0634C30.0213 37.322 30.1407 37.5626 30.3332 37.7366C30.5258 37.9106 30.7772 38.005 31.0366 38.0009H33.9991V47.4134C33.9995 47.4835 33.9851 47.5529 33.9569 47.6171C33.9287 47.6812 33.8874 47.7388 33.8355 47.7859C33.7836 47.833 33.7224 47.8688 33.6559 47.8907C33.5893 47.9127 33.5189 47.9204 33.4491 47.9134C26.8491 47.1134 21.7491 41.3759 22.0116 34.5134C22.159 31.1244 23.6252 27.9272 26.0973 25.6043C28.5694 23.2814 31.8516 22.0168 35.2432 22.0804C38.6348 22.144 41.8672 23.5309 44.2505 25.9448C46.6337 28.3588 47.979 31.6088 47.9991 35.0009V35.0009Z" fill="white"/>
<circle cx="35" cy="35" r="34.2288" stroke="#5C6267" stroke-width="1.54234"/>
</svg>
