<svg width="70" height="70" viewBox="0 0 70 70" fill="none" xmlns="http://www.w3.org/2000/svg">
<path d="M35 39C37.2091 39 39 37.2091 39 35C39 32.7909 37.2091 31 35 31C32.7909 31 31 32.7909 31 35C31 37.2091 32.7909 39 35 39Z" fill="white"/>
<path d="M40.5 22.5H29.5C27.6435 22.5 25.863 23.2375 24.5503 24.5503C23.2375 25.863 22.5 27.6435 22.5 29.5V40.5C22.5 42.3565 23.2375 44.137 24.5503 45.4497C25.863 46.7625 27.6435 47.5 29.5 47.5H40.5C42.3565 47.5 44.137 46.7625 45.4497 45.4497C46.7625 44.137 47.5 42.3565 47.5 40.5V29.5C47.5 27.6435 46.7625 25.863 45.4497 24.5503C44.137 23.2375 42.3565 22.5 40.5 22.5V22.5ZM35 41C33.8133 41 32.6533 40.6481 31.6666 39.9888C30.6799 39.3295 29.9108 38.3925 29.4567 37.2961C29.0026 36.1997 28.8838 34.9933 29.1153 33.8295C29.3468 32.6656 29.9182 31.5965 30.7574 30.7574C31.5965 29.9182 32.6656 29.3468 33.8295 29.1153C34.9933 28.8838 36.1997 29.0026 37.2961 29.4567C38.3925 29.9108 39.3295 30.6799 39.9888 31.6666C40.6481 32.6533 41 33.8133 41 35C41 36.5913 40.3679 38.1174 39.2426 39.2426C38.1174 40.3679 36.5913 41 35 41ZM41.5 30C41.2033 30 40.9133 29.912 40.6666 29.7472C40.42 29.5824 40.2277 29.3481 40.1142 29.074C40.0007 28.7999 39.9709 28.4983 40.0288 28.2074C40.0867 27.9164 40.2296 27.6491 40.4393 27.4393C40.6491 27.2296 40.9164 27.0867 41.2074 27.0288C41.4983 26.9709 41.7999 27.0006 42.074 27.1142C42.3481 27.2277 42.5824 27.42 42.7472 27.6666C42.912 27.9133 43 28.2033 43 28.5C43 28.8978 42.842 29.2794 42.5607 29.5607C42.2794 29.842 41.8978 30 41.5 30Z" fill="white"/>
<circle cx="35" cy="35" r="34.2288" stroke="#5C6267" stroke-width="1.54234"/>
</svg>
