<svg width="70" height="70" viewBox="0 0 70 70" fill="none" xmlns="http://www.w3.org/2000/svg">
<path d="M45.5 22.5H24.5C23.9696 22.5 23.4609 22.7107 23.0858 23.0858C22.7107 23.4609 22.5 23.9696 22.5 24.5V45.5C22.5 46.0304 22.7107 46.5391 23.0858 46.9142C23.4609 47.2893 23.9696 47.5 24.5 47.5H45.5C46.0304 47.5 46.5391 47.2893 46.9142 46.9142C47.2893 46.5391 47.5 46.0304 47.5 45.5V24.5C47.5 23.9696 47.2893 23.4609 46.9142 23.0858C46.5391 22.7107 46.0304 22.5 45.5 22.5ZM31 41C31 41.2652 30.8946 41.5196 30.7071 41.7071C30.5196 41.8946 30.2652 42 30 42C29.7348 42 29.4804 41.8946 29.2929 41.7071C29.1054 41.5196 29 41.2652 29 41V33C29 32.7348 29.1054 32.4804 29.2929 32.2929C29.4804 32.1054 29.7348 32 30 32C30.2652 32 30.5196 32.1054 30.7071 32.2929C30.8946 32.4804 31 32.7348 31 33V41ZM30 30.5C29.7033 30.5 29.4133 30.412 29.1666 30.2472C28.92 30.0824 28.7277 29.8481 28.6142 29.574C28.5006 29.2999 28.4709 28.9983 28.5288 28.7074C28.5867 28.4164 28.7296 28.1491 28.9393 27.9393C29.1491 27.7296 29.4164 27.5867 29.7074 27.5288C29.9983 27.4709 30.2999 27.5006 30.574 27.6142C30.8481 27.7277 31.0824 27.92 31.2472 28.1666C31.412 28.4133 31.5 28.7033 31.5 29C31.5 29.3978 31.342 29.7794 31.0607 30.0607C30.7794 30.342 30.3978 30.5 30 30.5V30.5ZM42 41C42 41.2652 41.8946 41.5196 41.7071 41.7071C41.5196 41.8946 41.2652 42 41 42C40.7348 42 40.4804 41.8946 40.2929 41.7071C40.1054 41.5196 40 41.2652 40 41V36.5C40 35.837 39.7366 35.2011 39.2678 34.7322C38.7989 34.2634 38.163 34 37.5 34C36.837 34 36.2011 34.2634 35.7322 34.7322C35.2634 35.2011 35 35.837 35 36.5V41C35 41.2652 34.8946 41.5196 34.7071 41.7071C34.5196 41.8946 34.2652 42 34 42C33.7348 42 33.4804 41.8946 33.2929 41.7071C33.1054 41.5196 33 41.2652 33 41V33C32.9993 32.7539 33.0894 32.5162 33.253 32.3324C33.4166 32.1485 33.6423 32.0315 33.8868 32.0036C34.1313 31.9758 34.3775 32.039 34.5783 32.1814C34.7791 32.3237 34.9203 32.535 34.975 32.775C35.6516 32.3163 36.4405 32.0506 37.2567 32.0064C38.073 31.9622 38.8859 32.1412 39.6081 32.5242C40.3303 32.9071 40.9346 33.4796 41.356 34.18C41.7774 34.8805 42 35.6825 42 36.5V41Z" fill="white"/>
<circle cx="35" cy="35" r="34.2288" stroke="#5C6267" stroke-width="1.54234"/>
</svg>
