<svg width="70" height="70" viewBox="0 0 70 70" fill="none" xmlns="http://www.w3.org/2000/svg">
<circle cx="35" cy="35" r="34.2288" stroke="#5C6267" stroke-width="1.54234"/>
<path fill-rule="evenodd" clip-rule="evenodd" d="M44.2222 47H24.7778C23.2437 47 22 45.7562 22 44.2222V24.7778C22 23.2437 23.2437 22 24.7778 22H44.2222C45.7562 22 47 23.2437 47 24.7778V44.2222C47 45.7562 45.7562 47 44.2222 47Z" fill="white"/>
<path d="M41.6236 41.4436H37.1535L27.4375 27.5547H31.9076L41.6236 41.4436ZM37.6861 40.2658H39.466L31.375 28.7325H29.5951L37.6861 40.2658Z" fill="black"/>
<path d="M28.8523 41.4431L33.8544 35.6486L33.2003 34.7812L27.4336 41.4431H28.8523Z" fill="black"/>
<path d="M34.8125 32.9165L35.441 33.8116L40.8444 27.5547H39.4556L34.8125 32.9165Z" fill="black"/>
</svg>
